<?xml version="1.0" encoding="utf-8"?>
<svg version="1.1" xmlns="http://www.w3.org/2000/svg" xmlns:xlink="http://www.w3.org/1999/xlink" x="0px" y="0px"
	 viewBox="0 0 436.1 193.3" style="enable-background:new 0 0 436.1 193.3;" xml:space="preserve">
<style type="text/css">
	.st0{fill:#F2F2F2;}
</style>
<g>
    <image style="overflow:visible;opacity:0.2;enable-background:new;" width="438" height="198" xlink:href="9F00659AE982767C.png"  transform="matrix(1 0 0 1 -1.942 -1.499939e-02)">
  </image>
  <path class="st0" d="M77.8,182.5V154H4.5v-27.6L47.2,9.6H87L40.6,122.5h37.2V74H114v48.5h16.5
    V154H114v28.6L77.8,182.5z"/>
  <path class="st0" d="M163.9,27.9c11.3-14.3,28-21.5,50.2-21.5c22.2,0,38.9,7.2,50.2,21.5
    c11.3,14.3,16.9,37.3,16.9,69s-5.6,54.4-16.8,68.2c-11.2,13.7-27.9,20.6-50.3,20.6c-22.4,0-39.1-6.9-50.3-20.6
    C152.6,151.4,147,128.7,147,97S152.6,42.3,163.9,27.9z M243.9,96.2c0-21.6-2.3-36.7-6.8-45.3c-4.5-8.7-12.2-13-22.9-13
    c-10.7,0-18.4,4.4-23,13.2c-4.6,8.7-6.9,23.8-6.9,45.3c0,21.5,2.4,36.5,7.1,45.1c4.7,8.6,12.4,12.8,23.1,12.8
    c10.7,0,18.3-4.3,22.8-12.8S243.9,117.7,243.9,96.2L243.9,96.2z"/>
  <path class="st0" d="M371.3,182.5V154h-73.4v-27.6L340.6,9.6h39.8l-46.4,112.9h37.2V74h36.2v48.5h16.5V154h-16.5v28.6L371.3,182.5z"/>
</g>
</svg>
